<?xml version="1.0" standalone="no"?>
<!DOCTYPE svg PUBLIC "-//W3C//DTD SVG 20010904//EN"
 "http://www.w3.org/TR/2001/REC-SVG-20010904/DTD/svg10.dtd">
<svg version="1.0" xmlns="http://www.w3.org/2000/svg"
 width="311.000000pt" height="311.000000pt" viewBox="0 0 311.000000 311.000000"
 preserveAspectRatio="xMidYMid meet">
<metadata>
Created by potrace 1.14, written by Peter Selinger 2001-2017
</metadata>
<g transform="translate(0.000000,311.000000) scale(0.100000,-0.100000)"
fill="#000000" stroke="none">
<path d="M1419 2976 c-3 -3 -41 -10 -85 -16 -149 -20 -367 -97 -489 -173 -145
-90 -254 -179 -349 -285 -145 -163 -264 -382 -311 -572 -9 -36 -21 -81 -26
-100 -16 -55 -23 -394 -10 -490 12 -89 12 -92 61 -245 95 -297 300 -564 570
-741 161 -106 354 -182 550 -216 97 -17 373 -17 470 0 194 34 435 128 535 210
6 4 17 11 25 14 47 18 284 236 330 303 183 267 234 386 290 675 11 58 11 362
0 420 -45 233 -107 396 -209 555 -55 86 -152 203 -223 271 -55 52 -181 154
-191 154 -3 0 -26 14 -51 31 -25 16 -85 48 -133 70 -48 22 -95 44 -103 48 -8
4 -40 14 -70 21 -30 8 -60 17 -66 22 -34 25 -494 64 -515 44z m326 -416 c11
-4 43 -14 70 -21 28 -7 79 -28 115 -47 36 -19 78 -41 93 -49 27 -14 143 -125
177 -168 24 -31 59 -105 81 -170 23 -66 28 -219 9 -254 -5 -11 -10 -27 -10
-36 0 -52 -102 -192 -180 -247 -57 -41 -115 -78 -122 -78 -15 0 -127 -81 -150
-108 -16 -19 -28 -49 -32 -79 -3 -27 -12 -57 -19 -67 -19 -26 -78 -35 -225
-36 -201 0 -230 21 -217 153 9 97 29 155 72 209 35 42 144 138 157 138 16 0
202 118 237 150 97 88 58 230 -80 294 -38 17 -65 21 -156 21 -106 0 -112 -1
-165 -32 -30 -18 -88 -68 -129 -113 -97 -105 -108 -105 -241 -2 -36 28 -77 60
-91 71 -35 27 -44 73 -22 119 21 44 172 198 235 240 66 43 172 88 243 103 124
25 300 30 350 9z m-96 -1511 c64 -23 108 -59 148 -121 25 -39 28 -51 28 -133
0 -82 -2 -94 -29 -135 -56 -86 -134 -132 -227 -132 -78 0 -139 25 -194 80 -60
60 -70 86 -70 187 0 85 2 94 32 140 42 66 66 85 138 112 75 28 104 28 174 2z"/>
</g>
</svg>
